<svg width="14" height="20" viewBox="0 0 14 20" fill="none" xmlns="http://www.w3.org/2000/svg">
<path fill-rule="evenodd" clip-rule="evenodd" d="M1.53503 11.1425C2.01603 11.7305 3.24003 13.909 3.50003 15H10.5C10.76 13.91 11.9825 11.7315 12.4635 11.144C13.2854 10.1413 13.8029 8.92411 13.9545 7.6365C14.1041 6.35136 13.8804 5.05033 13.31 3.889C12.7346 2.71884 11.8393 1.7357 10.728 1.0535C9.60733 0.363729 8.31699 -0.00100981 7.00103 2.09983e-06C5.68253 2.09983e-06 4.39053 0.365002 3.27403 1.0525C2.16242 1.73442 1.26682 2.7174 0.691029 3.8875C0.120378 5.04838 -0.103891 6.34904 0.0450292 7.634C0.194529 8.9175 0.711029 10.134 1.53503 11.1425ZM7.50003 4L4.50003 8.5H6.50003V11.5L9.50003 7H7.50003V4Z" fill="black"/>
<path d="M3.5 16.5C3.5 16.3674 3.55268 16.2402 3.64645 16.1464C3.74021 16.0527 3.86739 16 4 16H10C10.1326 16 10.2598 16.0527 10.3536 16.1464C10.4473 16.2402 10.5 16.3674 10.5 16.5C10.5 16.6326 10.4473 16.7598 10.3536 16.8536C10.2598 16.9473 10.1326 17 10 17H4C3.86739 17 3.74021 16.9473 3.64645 16.8536C3.55268 16.7598 3.5 16.6326 3.5 16.5ZM10.5 18H3.5V19C3.5 19.2652 3.60536 19.5196 3.79289 19.7071C3.98043 19.8946 4.23478 20 4.5 20H9.5C9.76522 20 10.0196 19.8946 10.2071 19.7071C10.3946 19.5196 10.5 19.2652 10.5 19V18Z" fill="black"/>
</svg>
