<svg width="18" height="18" viewBox="0 0 18 18" fill="none" xmlns="http://www.w3.org/2000/svg">
<path d="M2.616 13.462H3.5V11.885H14.5V13.462H15.385V10.035C15.385 9.775 15.3183 9.50333 15.185 9.22C15.0517 8.93667 14.8683 8.71067 14.635 8.542V6.846C14.635 6.386 14.4807 6.00167 14.172 5.693C13.8633 5.38433 13.479 5.23033 13.019 5.231H10.116C9.85533 5.231 9.632 5.27833 9.446 5.373C9.26 5.46833 9.11133 5.598 9 5.762C8.88867 5.598 8.74 5.46833 8.554 5.373C8.368 5.27833 8.14467 5.231 7.884 5.231H4.982C4.522 5.231 4.13767 5.385 3.829 5.693C3.52033 6.001 3.36633 6.38533 3.367 6.846V8.542C3.13367 8.71133 2.95033 8.93733 2.817 9.22C2.68367 9.50267 2.617 9.77433 2.617 10.035L2.616 13.462ZM3.5 11V10C3.5 9.71667 3.596 9.47933 3.788 9.288C3.98 9.09667 4.21733 9.00067 4.5 9H13.5C13.7833 9 14.021 9.096 14.213 9.288C14.405 9.48 14.5007 9.71733 14.5 10V11H3.5ZM4.25 8.116V6.73C4.25 6.55 4.30767 6.40267 4.423 6.288C4.53833 6.17267 4.686 6.115 4.866 6.115H7.942C8.122 6.115 8.26933 6.17267 8.384 6.288C8.5 6.40333 8.558 6.55067 8.558 6.73V8.115L4.25 8.116ZM9.442 8.116V6.73C9.442 6.55 9.5 6.40267 9.616 6.288C9.73133 6.17267 9.87867 6.115 10.058 6.115H13.135C13.3143 6.115 13.4617 6.17267 13.577 6.288C13.6923 6.40333 13.75 6.55067 13.75 6.73V8.115L9.442 8.116ZM1.616 18C1.15533 18 0.771 17.846 0.463 17.538C0.155 17.23 0.000666667 16.8457 0 16.385V1.615C0 1.155 0.154333 0.771 0.463 0.463C0.771667 0.155 1.15567 0.000666667 1.615 0H16.385C16.845 0 17.229 0.154333 17.537 0.463C17.845 0.771667 17.9993 1.156 18 1.616V16.385C18 16.845 17.8457 17.2293 17.537 17.538C17.2283 17.8467 16.8443 18.0007 16.385 18H1.616ZM1.616 17H16.385C16.5383 17 16.6793 16.936 16.808 16.808C16.9367 16.68 17.0007 16.5387 17 16.384V1.616C17 1.462 16.936 1.32067 16.808 1.192C16.68 1.06333 16.539 0.999333 16.385 1H1.615C1.46167 1 1.32067 1.064 1.192 1.192C1.06333 1.32 0.999333 1.461 1 1.615V16.385C1 16.5383 1.064 16.6793 1.192 16.808C1.32 16.9367 1.461 17.0007 1.615 17" fill="black"/>
</svg>
